# AST/ASF file generated using VICON BodyLanguage
# -----------------------------------------------
:version 1.10
:name VICON
:units
  mass 1.0
  length 0.45
  angle deg
:documentation
   .ast/.asf automatically generated from VICON data using
   VICON BodyBuilder and BodyLanguage model FoxedUp or BRILLIANT.MOD
:root
   order TX TY TZ RX RY RZ
   axis XYZ
   position 0 0 0  
   orientation 0 0 0 
:bonedata
  begin
     id 1 
     name lhipjoint
     direction 0.606768 -0.715223 0.346827 
     length 2.41543 
     axis 0 0 0  XYZ
  end
  begin
     id 2 
     name lfemur
     direction 0.34202 -0.939693 0  
     length 7.2778  
     axis 0 0 20  XYZ
    dof rx ry rz
    limits (-160.0 20.0)
           (-70.0 70.0)
           (-60.0 70.0)
  end
  begin
     id 3 
     name ltibia
     direction 0.34202 -0.939693 0   
     length 7.61811   
     axis 0 0 20   XYZ
    dof rx
    limits (-10.0 170.0)
  end
  begin
     id 4 
     name lfoot
     direction 0.0823924 -0.226371 0.97055   
     length 2.33618   
     axis -90 7.62852e-016 20   XYZ
    dof rx rz
    limits (-45.0 90.0)
           (-70.0 20.0)
  end
  begin
     id 5 
     name ltoes
     direction 1.53554e-011 -4.21934e-011 1   
     length 1.17015   
     axis -90 7.62852e-016 20   XYZ
    dof rx
    limits (-90.0 20.0)
  end
  begin
     id 6 
     name rhipjoint
     direction -0.6077 -0.714582 0.346516   
     length 2.4176  
     axis 0 0 0  XYZ 
  end
  begin
     id 7 
     name rfemur
     direction -0.34202 -0.939693 0   
     length 7.28127   
     axis 0 0 -20   XYZ
    dof rx ry rz
    limits (-160.0 20.0)
           (-70.0 70.0)
           (-70.0 60.0)
  end
  begin
     id 8 
     name rtibia
     direction -0.34202 -0.939693 0   
     length 7.77648   
     axis 0 0 -20   XYZ
    dof rx
    limits (-10.0 170.0)
 end
 begin
     id 9 
     name rfoot
     direction -0.0809463 -0.222398 0.97159   
     length 2.37533  
     axis -90 -7.62852e-016 -20   XYZ
    dof rx rz
    limits (-45.0 90.0)
           (-20.0 70.0)
  end
  begin
     id 10 
     name rtoes
     direction -1.53568e-011 -4.21714e-011 1   
     length 1.18972   
     axis -90 -7.62852e-016 -20   XYZ
    dof rx
    limits (-90.0 20.0)
  end
  begin
     id 11 
     name lowerback
     direction 0.010968 0.991932 -0.126297   
     length 2.21698   
     axis 0 0 0   XYZ
    dof rx ry rz
    limits (-20.0 45.0)
           (-30.0 30.0)
           (-30.0 30.0)
  end
  begin
     id 12 
     name upperback
     direction 0.0167007 0.997503 -0.0686276   
     length 2.22371   
     axis 0 0 0   XYZ
    dof rx ry rz
    limits (-20.0 45.0)
           (-30.0 30.0)
           (-30.0 30.0)
  end
  begin
     id 13 
     name thorax
     direction 0.0111721 0.999885 -0.0102878   
     length 2.25242   
     axis 0 0 0   XYZ
    dof rx ry rz
    limits (-20.0 45.0)
           (-30.0 30.0)
           (-30.0 30.0)
  end
  begin
     id 14 
     name lowerneck
     direction -0.0120265 0.990428 0.137508   
     length 1.57674   
     axis 0 0 0   XYZ
    dof rx ry rz
    limits (-20.0 45.0)
           (-30.0 30.0)
           (-30.0 30.0)
  end
  begin
     id 15 
     name upperneck
     direction 0.0175669 0.998907 0.0433089   
     length 1.5618   
     axis 0 0 0   XYZ
    dof rx ry rz
    limits (-20.0 45.0)
           (-30.0 30.0)
           (-30.0 30.0)
  end
  begin
     id 16
     name head
     direction 0.00754609 0.99997 0.00185367  
     length 1.60579  
     axis 0 0 0   XYZ
    dof rx ry rz
    limits (-20.0 45.0)
           (-30.0 30.0)
           (-30.0 30.0)
  end
  begin
     id 17 
     name lclavicle
     direction 0.885866 0.429166 -0.176231  
     length 3.44967  
     axis 0 0 0   XYZ
    dof ry rz
    limits (-20.0 10.0)
           (0.0 20.0)
  end
  begin
     id 18 
     name lhumerus
     direction 1 -4.48973e-011 -1.90255e-027   
     length 5.20607   
     axis 180 -30 -90   XYZ
    dof rx ry rz
    limits (-60.0 90.0)
           (-90.0 90.0)
           (-90.0 90.0)
  end
  begin
     id 19
     name lradius
     direction 1 -4.48956e-011 9.87925e-027   
     length 3.39961   
     axis 180 -30 -90   XYZ
    dof rx
    limits (-10.0 170.0)
  end
  begin
     id 20
     name lwrist
     direction 1 -4.48985e-011 1.73247e-026   
     length 1.6998   
     axis -9.60847e-015 90 90   XYZ
    dof ry
    limits (-180.0 0.0)
 end
  begin
     id 21 
     name lhand
     direction 1 -4.48798e-011 3.46119e-026   
     length 0.519693   
     axis -2.21073e-014 90 90   XYZ
    dof rx rz
    limits (-90.0 90.0)
           (-45.0 45.0)
  end
  begin
     id 22 
     name lfingers
     direction 1 -4.48938e-011 6.92797e-026   
     length 0.41899   
     axis -4.42155e-014 90 90   XYZ
    dof rx
    limits (0.0 90.0)
  end
  begin
     id 23
     name lthumb
     direction 0.707107 -6.34952e-011 0.707107   
     length 0.601588   
     axis -90 45 6.0103e-014   XYZ
    dof rx rz
    limits (-45.0 45.0)
           (-45.0 45.0)
  end
  begin
     id 24 
     name rclavicle
     direction -0.866736 0.456792 -0.200276   
     length 3.45032  
     axis 0 0 0   XYZ 
    dof ry rz
    limits (-10.0 20.0)
           (-20.0 0.0)
  end
  begin
     id 25 
     name rhumerus
     direction -1 -4.4897e-011 8.65094e-028  
     length 5.32214   
     axis 180 30 90   XYZ
    dof rx ry rz
    limits (-90.0 60.0)
           (-90.0 90.0)
           (-90.0 90.0)
  end
  begin
     id 26 
     name rradius
     direction -1 -4.48987e-011 1.08427e-026   
     length 3.51208   
     axis 180 30 90   XYZ
    dof rx
    limits (-10.0 170.0)
  end
  begin
     id 27 
     name rwrist
     direction -1 -4.48961e-011 1.73222e-026   
     length 1.75604   
     axis -9.60847e-015 -90 -90   XYZ
    dof ry
    limits (-180.0 0.0)
  end
  begin
     id 28
     name rhand
     direction -1 -4.48895e-011 3.46314e-026   
     length 0.586681   
     axis -2.21073e-014 -90 -90   XYZ
    dof rx rz
    limits (-90.0 90.0)
           (-45.0 45.0)
  end
  begin
     id 29
     name rfingers
     direction -1 -4.48968e-011 6.92916e-026   
     length 0.472997   
     axis -4.42155e-014 -90 -90   XYZ
    dof rx
    limits (0.0 90.0)
  end
  begin
     id 30
     name rthumb
     direction -0.707107 -6.34848e-011 0.707107   
     length 0.679133   
     axis -90 -45 -6.0103e-014   XYZ
    dof rx rz
    limits (-45.0 45.0)
           (-45.0 45.0)
  end
:hierarchy
  begin
    root lhipjoint rhipjoint lowerback
    lhipjoint lfemur
    lfemur ltibia
    ltibia lfoot
    lfoot ltoes
    rhipjoint rfemur
    rfemur rtibia
    rtibia rfoot
    rfoot rtoes
    lowerback upperback
    upperback thorax
    thorax lowerneck lclavicle rclavicle
    lowerneck upperneck
    upperneck head
    lclavicle lhumerus
    lhumerus lradius
    lradius lwrist
    lwrist lhand lthumb
    lhand lfingers
    rclavicle rhumerus
    rhumerus rradius
    rradius rwrist
    rwrist rhand rthumb
    rhand rfingers
  end

#!OML:ASF H:\Dans Jumps\Project 1\Capture day 1\Session 1\subject.ASF
:FULLY-SPECIFIED
:DEGREES
51
root 0.57129 17.4095 -14.646 9.11876 -1.7679 -1.25587
lowerback 2.39446 -0.846408 -0.479906
upperback 5.32595 -1.18472 1.66924
thorax 4.19266 -0.65029 1.97583
lowerneck -13.6379 1.21641 -1.5442
upperneck 29.3652 2.21474 -0.274608
head 11.8576 0.773791 0.472178
rclavicle -2.26118e-014 1.78906e-014
rhumerus -20.7389 -13.3242 -79.8243
rradius 27.229
rwrist 30.2899
rhand -17.2791 -25.6431
rfingers 7.12502
rthumb 8.96602 -55.4326
lclavicle -2.26118e-014 1.78906e-014
lhumerus -18.6058 -3.29167 85.7802
lradius 22.9123
lwrist 6.19511
lhand -24.2474 -2.05075
lfingers 7.12502
lthumb 2.23845 27.9173
rfemur -23.7243 -1.62829 19.0938
rtibia 29.8537
rfoot -13.8105 -4.75213
rtoes 7.95233
lfemur -23.1321 8.91196 -19.6896
ltibia 28.1111
lfoot -12.0689 4.66371
ltoes 3.91272
52
root 0.572156 17.4041 -14.6655 9.19655 -1.75509 -1.24572
lowerback 2.50227 -0.840271 -0.485181
upperback 5.37664 -1.17663 1.66947
thorax 4.18461 -0.646786 1.98051
lowerneck -13.6489 1.21769 -1.53899
upperneck 29.2476 2.2183 -0.29014
head 11.8138 0.775582 0.465364
rclavicle -2.16675e-014 9.34288e-015
rhumerus -20.9495 -13.4733 -79.6227
rradius 27.1811
rwrist 30.3925
rhand -17.2826 -25.5967
rfingers 7.12502
rthumb 8.96267 -55.3863
lclavicle -2.16675e-014 9.34288e-015
lhumerus -18.7659 -3.26093 85.7167
lradius 22.915
lwrist 6.33483
lhand -24.2653 -1.97971
lfingers 7.12502
lthumb 2.22115 27.9885
rfemur -23.9667 -1.66112 19.0858
rtibia 30.016
rfoot -13.8431 -4.72791
rtoes 7.94818
lfemur -23.3947 8.94189 -19.7319
ltibia 28.2983
lfoot -12.1193 4.63836
ltoes 3.90061
53
root 0.572926 17.3984 -14.6846 9.26719 -1.74018 -1.23778
lowerback 2.61417 -0.833151 -0.488121
upperback 5.428 -1.16726 1.67061
thorax 4.17488 -0.642565 1.98487
lowerneck -13.6578 1.21832 -1.53401
upperneck 29.1343 2.22063 -0.304371
head 11.7714 0.776919 0.458928
rclavicle 9.24349e-015 -1.27222e-014
rhumerus -21.1772 -13.6316 -79.4122
rradius 27.1296
rwrist 30.5064
rhand -17.3043 -25.5501
rfingers 7.12502
rthumb 8.94168 -55.3406
lclavicle 9.24349e-015 -1.27222e-014
lhumerus -18.9425 -3.22111 85.654
lradius 22.9174
lwrist 6.46019
lhand -24.2891 -1.94688
lfingers 7.12502
lthumb 2.19812 28.0215
rfemur -24.2013 -1.69312 19.0809
rtibia 30.183
rfoot -13.8819 -4.70783
rtoes 7.92968
lfemur -23.6507 8.97574 -19.7709
ltibia 28.4893
lfoot -12.1707 4.60807
ltoes 3.87852
54
root 0.573589 17.3926 -14.7034 9.33512 -1.72408 -1.2332
lowerback 2.72762 -0.824853 -0.489425
upperback 5.47696 -1.15635 1.67381
thorax 4.16175 -0.637526 1.99048
lowerneck -13.6643 1.21585 -1.52794
upperneck 29.0268 2.21853 -0.319523
head 11.7308 0.776223 0.451377
rclavicle -1.20265e-014 -3.97569e-015
rhumerus -21.4254 -13.7997 -79.1907
rradius 27.0778
rwrist 30.6274
rhand -17.3284 -25.521
rfingers 7.12502
rthumb 8.91841 -55.3125
lclavicle -1.20265e-014 -3.97569e-015
lhumerus -19.1447 -3.1824 85.5951
lradius 22.9293
lwrist 6.58712
lhand -24.3138 -1.91678
lfingers 7.12502
lthumb 2.17426 28.0519
rfemur -24.4341 -1.72333 19.0807
rtibia 30.3552
rfoot -13.9251 -4.69171
rtoes 7.91249
lfemur -23.9077 9.01204 -19.8054
ltibia 28.6891
lfoot -12.2253 4.57463
ltoes 3.85373
55
root 0.574083 17.3863 -14.7219 9.40357 -1.70743 -1.23778
lowerback 2.84087 -0.815278 -0.483683
upperback 5.52278 -1.14377 1.67963
thorax 4.14531 -0.631391 1.99485
lowerneck -13.6697 1.21432 -1.52006
upperneck 28.9265 2.21606 -0.330272
head 11.6929 0.776017 0.445147
rclavicle 1.14301e-014 -9.93923e-015
rhumerus -21.6942 -13.9768 -78.9608
rradius 27.03
rwrist 30.7421
rhand -17.3487 -25.5091
rfingers 7.12502
rthumb 8.89887 -55.3015
lclavicle 1.14301e-014 -9.93923e-015
lhumerus -19.3723 -3.14679 85.5373
lradius 22.9529
lwrist 6.72533
lhand -24.3265 -1.86484
lfingers 7.12502
lthumb 2.162 28.1039
rfemur -24.6696 -1.74932 19.0918
rtibia 30.5327
rfoot -13.9707 -4.68166
rtoes 7.88701
lfemur -24.1715 9.04945 -19.8293
ltibia 28.901
lfoot -12.2828 4.54333
ltoes 3.81504
56
root 0.574512 17.3797 -14.7401 9.47605 -1.69033 -1.25372
lowerback 2.95229 -0.804346 -0.468901
upperback 5.56321 -1.12941 1.68947
thorax 4.12412 -0.624032 1.9983
lowerneck -13.6756 1.21014 -1.512
upperneck 28.83 2.2091 -0.338669
head 11.6567 0.774064 0.439178
rclavicle -1.92821e-014 7.15625e-015
rhumerus -21.9879 -14.1516 -78.722
rradius 26.99
rwrist 30.835
rhand -17.3694 -25.4999
rfingers 7.12502
rthumb 8.87893 -55.2931
lclavicle -1.92821e-014 7.15625e-015
lhumerus -19.6282 -3.11685 85.4835
lradius 22.9872
lwrist 6.88289
lhand -24.3346 -1.80952
lfingers 7.12502
lthumb 2.15417 28.1593
rfemur -24.9123 -1.77614 19.1166
rtibia 30.7169
rfoot -14.0232 -4.67158
rtoes 7.8665
lfemur -24.4457 9.0865 -19.841
ltibia 29.1266
lfoot -12.3443 4.51591
ltoes 3.76825
57
root 0.574914 17.3727 -14.7577 9.55452 -1.67127 -1.27488
lowerback 3.05492 -0.793877 -0.450633
upperback 5.60056 -1.11568 1.70115
thorax 4.10467 -0.616873 2.00155
lowerneck -13.6775 1.20291 -1.51284
upperneck 28.7293 2.19607 -0.334065
head 11.6178 0.770117 0.43865
rclavicle 6.4605e-015 -6.75868e-015
rhumerus -22.2886 -14.3413 -78.4782
rradius 26.9394
rwrist 30.9129
rhand -17.3889 -25.506
rfingers 7.12502
rthumb 8.86003 -55.3
lclavicle 6.4605e-015 -6.75868e-015
lhumerus -19.9051 -3.1131 85.4351
lradius 23.0266
lwrist 7.08801
lhand -24.3463 -1.73921
lfingers 7.12502
lthumb 2.14294 28.2298
rfemur -25.1643 -1.80846 19.149
rtibia 30.9086
rfoot -14.0814 -4.66037
rtoes 7.85297
lfemur -24.7318 9.11808 -19.847
ltibia 29.3655
lfoot -12.4106 4.49483
ltoes 3.71612
58
root 0.575243 17.3653 -14.7748 9.63849 -1.6472 -1.29815
lowerback 3.14855 -0.785417 -0.431895
upperback 5.63647 -1.10465 1.71395
thorax 4.08895 -0.61107 2.00552
lowerneck -13.6712 1.19836 -1.52155
upperneck 28.6186 2.18446 -0.315619
head 11.5732 0.767836 0.44464
rclavicle 6.95746e-015 -2.56432e-014
rhumerus -22.5972 -14.5331 -78.2328
rradius 26.8903
rwrist 30.9657
rhand -17.3911 -25.5476
rfingers 7.12502
rthumb 8.85798 -55.3417
lclavicle 6.95746e-015 -2.56432e-014
lhumerus -20.2004 -3.12399 85.3901
lradius 23.0724
lwrist 7.33887
lhand -24.3599 -1.65589
lfingers 7.12502
lthumb 2.12981 28.3132
rfemur -25.4254 -1.84853 19.186
rtibia 31.1085
rfoot -14.1438 -4.64911
rtoes 7.84482
lfemur -25.0281 9.14165 -19.8503
ltibia 29.6153
lfoot -12.4799 4.48038
ltoes 3.65598
59
root 0.575558 17.3576 -14.7914 9.72556 -1.61641 -1.32096
lowerback 3.23774 -0.779421 -0.413716
upperback 5.66953 -1.09686 1.72721
thorax 4.07292 -0.606891 2.0102
lowerneck -13.6661 1.19437 -1.52543
upperneck 28.5078 2.17341 -0.300415
head 11.5289 0.765903 0.44868
rclavicle -1.0635e-014 2.98177e-015
rhumerus -22.9232 -14.711 -77.9844
rradius 26.8512
rwrist 30.9939
rhand -17.386 -25.5826
rfingers 7.12502
rthumb 8.86285 -55.3765
lclavicle -1.0635e-014 2.98177e-015
lhumerus -20.5165 -3.13951 85.3485
lradius 23.121
lwrist 7.62087
lhand -24.3746 -1.55095
lfingers 7.12502
lthumb 2.11553 28.4183
rfemur -25.6933 -1.89891 19.2243
rtibia 31.3166
rfoot -14.2081 -4.63632
rtoes 7.83203
lfemur -25.3315 9.15463 -19.8534
ltibia 29.8737
lfoot -12.5515 4.47227
ltoes 3.59005
60
root 0.575904 17.3497 -14.8074 9.81492 -1.58115 -1.34177
lowerback 3.31907 -0.776009 -0.397314
upperback 5.70278 -1.09253 1.74045
thorax 4.06172 -0.604534 2.01572
lowerneck -13.6626 1.19401 -1.53072
upperneck 28.3961 2.16652 -0.280423
head 11.4846 0.766263 0.455285
rclavicle -1.10325e-014 -1.19271e-015
rhumerus -23.2555 -14.8921 -77.7331
rradius 26.8082
rwrist 31.0266
rhand -17.3795 -25.611
rfingers 7.12502
rthumb 8.86913 -55.4046
lclavicle -1.10325e-014 -1.19271e-015
lhumerus -20.8513 -3.16902 85.3109
lradius 23.1706
lwrist 7.94539
lhand -24.3982 -1.44238
lfingers 7.12502
lthumb 2.09281 28.5271
rfemur -25.9663 -1.95601 19.2614
rtibia 31.5328
rfoot -14.2715 -4.6201
rtoes 7.83062
lfemur -25.6382 9.15782 -19.858
ltibia 30.138
lfoot -12.6256 4.47023
ltoes 3.52923
61
root 0.576286 17.3414 -14.8231 9.90143 -1.54406 -1.36328
lowerback 3.4035 -0.773397 -0.379334
upperback 5.73479 -1.08919 1.75388
thorax 4.0475 -0.602584 2.0206
lowerneck -13.6697 1.19479 -1.52584
upperneck 28.2931 2.16213 -0.270947
head 11.4461 0.767351 0.456761
rclavicle 5.86415e-015 -2.32578e-014
rhumerus -23.6114 -15.0483 -77.4777
rradius 26.7836
rwrist 31.0446
rhand -17.3811 -25.5972
rfingers 7.12502
rthumb 8.86763 -55.3908
lclavicle 5.86415e-015 -2.32578e-014
lhumerus -21.2096 -3.18065 85.2723
lradius 23.2186
lwrist 8.26696
lhand -24.4228 -1.36645
lfingers 7.12502
lthumb 2.069 28.6033
rfemur -26.2394 -2.01601 19.2996
rtibia 31.7558
rfoot -14.3311 -4.60294
rtoes 7.8062
lfemur -25.9436 9.1557 -19.861
ltibia 30.4076
lfoot -12.7012 4.47423
ltoes 3.46897
62
root 0.576779 17.333 -14.8384 9.98839 -1.51408 -1.38078
lowerback 3.48428 -0.769157 -0.365761
upperback 5.76735 -1.08367 1.76585
thorax 4.03589 -0.599714 2.02639
lowerneck -13.6872 1.19605 -1.51571
upperneck 28.1967 2.15955 -0.268747
head 11.4126 0.768758 0.455047
rclavicle -1.0138e-014 8.54774e-015
rhumerus -23.9821 -15.2013 -77.218
rradius 26.7681
rwrist 31.073
rhand -17.3786 -25.5861
rfingers 7.12502
rthumb 8.87005 -55.3797
lclavicle -1.0138e-014 8.54774e-015
lhumerus -21.5847 -3.19148 85.2353
lradius 23.2605
lwrist 8.59745
lhand -24.445 -1.30034
lfingers 7.12502
lthumb 2.04757 28.6696
rfemur -26.516 -2.07307 19.3325
rtibia 31.9844
rfoot -14.3873 -4.58058
rtoes 7.78134
lfemur -26.2487 9.15149 -19.869
ltibia 30.6818
lfoot -12.7796 4.48843
ltoes 3.41073
63
root 0.577323 17.3242 -14.8535 10.0711 -1.49587 -1.39917
lowerback 3.57105 -0.761302 -0.352821
upperback 5.80005 -1.07327 1.77699
thorax 4.02087 -0.594405 2.03174
lowerneck -13.717 1.19693 -1.49787
upperneck 28.1065 2.15728 -0.274968
head 11.3842 0.769933 0.449117
rclavicle 1.11319e-014 5.56597e-015
rhumerus -24.3762 -15.3258 -76.9564
rradius 26.7749
rwrist 31.0904
rhand -17.3733 -25.5557
rfingers 7.12502
rthumb 8.87513 -55.3491
lclavicle 1.11319e-014 5.56597e-015
lhumerus -21.9776 -3.18722 85.1968
lradius 23.303
lwrist 8.9195
lhand -24.463 -1.21272
lfingers 7.12502
lthumb 2.03017 28.7574
rfemur -26.7911 -2.11676 19.3643
rtibia 32.2168
rfoot -14.4396 -4.55926
rtoes 7.7502
lfemur -26.55 9.14958 -19.8758
ltibia 30.9618
lfoot -12.8594 4.51304
ltoes 3.36135
64
root 0.577863 17.3151 -14.8683 10.149 -1.48923 -1.42215
lowerback 3.66717 -0.74894 -0.337839
upperback 5.83129 -1.05677 1.78857
thorax 3.99881 -0.585938 2.03652
lowerneck -13.7504 1.19734 -1.47358
upperneck 28.019 2.15512 -0.289217
head 11.3578 0.770786 0.439217
rclavicle -1.09332e-015 1.78906e-015
rhumerus -24.8019 -15.4079 -76.6954
rradius 26.8153
rwrist 31.076
rhand -17.3599 -25.5296
rfingers 7.12502
rthumb 8.88801 -55.3224
lclavicle -1.09332e-015 1.78906e-015
lhumerus -22.3852 -3.17072 85.1585
lradius 23.3385
lwrist 9.23024
lhand -24.4808 -1.11637
lfingers 7.12502
lthumb 2.01299 28.8539
rfemur -27.063 -2.1446 19.3989
rtibia 32.4517
rfoot -14.494 -4.54006
rtoes 7.71745
lfemur -26.8466 9.15227 -19.8773
ltibia 31.2477
lfoot -12.9402 4.54604
ltoes 3.31153
65
root 0.578388 17.3058 -14.8829 10.2242 -1.49155 -1.45136
lowerback 3.77003 -0.733884 -0.320057
upperback 5.86227 -1.03663 1.80201
thorax 3.97255 -0.575574 2.0417
lowerneck -13.7794 1.19634 -1.45693
upperneck 27.9207 2.15163 -0.299867
head 11.3263 0.770823 0.431668
rclavicle 2.88238e-015 -9.34288e-015
rhumerus -25.2394 -15.4712 -76.4341
rradius 26.8615
rwrist 31.0558
rhand -17.3452 -25.5141
rfingers 7.12502
rthumb 8.90227 -55.3063
lclavicle 2.88238e-015 -9.34288e-015
lhumerus -22.7987 -3.14777 85.1211
lradius 23.3639
lwrist 9.5367
lhand -24.5714 -1.1627
lfingers 7.12502
lthumb 1.92553 28.8084
rfemur -27.3322 -2.1572 19.4387
rtibia 32.6884
rfoot -14.5553 -4.52583
rtoes 7.69174
lfemur -27.1421 9.15961 -19.8717
ltibia 31.5408
lfoot -13.0228 4.58369
ltoes 3.2681
